<?xml version="1.0" standalone="no"?>
<!DOCTYPE svg PUBLIC "-//W3C//DTD SVG 20010904//EN"
 "http://www.w3.org/TR/2001/REC-SVG-20010904/DTD/svg10.dtd">
<svg version="1.0" xmlns="http://www.w3.org/2000/svg"
 width="1002.000000pt" height="1002.000000pt" viewBox="0 0 1002.000000 1002.000000"
 preserveAspectRatio="xMidYMid meet">
<metadata>
Created by potrace 1.14, written by Peter Selinger 2001-2017
</metadata>
<g transform="translate(0.000000,1002.000000) scale(0.100000,-0.100000)"
fill="#000000" stroke="none">
<path d="M4943 10004 c-54 -20 -124 -82 -148 -133 -11 -22 -23 -41 -27 -41 -5
0 -8 -4 -8 -8 0 -5 -34 -68 -76 -140 -71 -123 -79 -133 -132 -163 -89 -50
-109 -62 -237 -136 -66 -39 -268 -156 -450 -260 -267 -154 -949 -547 -1080
-623 -16 -10 -73 -42 -125 -72 -52 -30 -167 -97 -255 -148 -88 -51 -176 -101
-195 -112 -84 -48 -373 -215 -455 -263 -49 -29 -106 -62 -125 -73 -19 -11
-123 -70 -230 -132 -107 -62 -216 -124 -241 -139 -315 -179 -358 -207 -363
-231 -3 -14 -5 -999 -5 -2190 l1 -2166 -102 -174 c-149 -254 -153 -264 -153
-340 -1 -79 26 -145 78 -194 72 -68 83 -70 360 -76 l250 -5 285 -164 c157 -90
338 -195 403 -232 65 -38 120 -69 123 -69 3 0 28 -15 57 -33 29 -18 66 -40 82
-49 17 -8 181 -102 365 -208 184 -105 353 -202 375 -215 22 -12 177 -101 345
-197 168 -96 325 -186 350 -200 25 -14 180 -103 345 -198 165 -96 309 -178
320 -184 28 -16 377 -216 395 -227 96 -59 353 -199 365 -199 17 0 24 4 230
122 72 41 283 163 470 270 187 107 448 257 580 333 350 201 819 470 1060 608
116 66 224 128 240 137 17 10 122 70 235 135 113 65 383 220 602 346 l396 228
226 1 226 1 59 30 c94 47 143 127 144 235 1 71 -11 99 -140 322 l-85 147 -1
2204 0 2205 -21 21 c-17 17 -162 104 -354 211 -20 11 -135 78 -255 147 -120
70 -237 138 -260 151 -23 13 -141 81 -262 151 -121 70 -236 136 -255 147 -19
11 -107 62 -195 113 -88 51 -275 159 -415 240 -140 81 -273 158 -295 170 -22
12 -56 31 -75 42 -19 11 -62 36 -95 55 -33 19 -206 119 -385 223 -179 103
-338 196 -355 205 -16 9 -102 59 -190 110 -88 51 -178 103 -200 115 -22 13
-78 45 -124 71 l-84 49 -75 130 c-41 72 -84 148 -96 170 -12 22 -42 61 -67 87
-72 72 -179 96 -276 62z m-416 -591 c-42 -74 -244 -425 -256 -443 -8 -14 -21
-34 -27 -45 -6 -11 -191 -331 -412 -711 -221 -381 -410 -707 -420 -725 -35
-62 -66 -114 -69 -119 -3 -2 -535 -5 -1183 -5 -649 0 -1176 3 -1172 6 6 6 687
400 1110 643 68 39 137 79 155 89 18 10 93 54 167 97 410 237 770 446 810 468
25 14 141 81 258 149 117 67 217 123 223 123 5 0 9 3 9 8 0 4 10 12 23 18 24
11 409 233 637 367 161 94 153 90 147 80z m1543 -301 c129 -74 249 -143 265
-153 17 -10 44 -26 60 -35 35 -20 669 -385 900 -519 88 -51 176 -102 195 -113
19 -11 193 -111 385 -222 193 -111 366 -211 385 -222 19 -11 184 -106 365
-211 182 -104 360 -208 398 -229 37 -21 67 -40 67 -41 0 -5 -2369 -1 -2373 3
-4 6 -185 318 -217 375 -12 22 -39 69 -60 105 -21 36 -47 81 -58 100 -10 19
-138 240 -282 490 -144 250 -270 469 -280 485 -205 356 -250 435 -263 461 -16
30 -10 28 131 -53 81 -47 253 -146 382 -221z m-1074 -854 l-1 -893 -518 0
c-284 0 -517 1 -517 3 0 3 537 929 755 1302 21 36 43 74 49 85 30 55 229 395
231 395 1 0 1 -402 1 -892z m196 687 c64 -110 125 -216 135 -235 11 -19 114
-197 228 -395 114 -198 278 -481 363 -630 85 -148 161 -280 169 -292 8 -11 10
-23 6 -25 -7 -4 -978 -3 -1009 1 -8 1 -11 257 -11 891 0 489 1 889 2 887 1 -1
54 -92 117 -202z m-1902 -1661 c0 -5 -112 -199 -290 -504 -21 -36 -78 -135
-128 -220 -49 -85 -99 -171 -111 -190 -12 -19 -24 -43 -27 -52 -4 -10 -10 -18
-14 -18 -4 0 -193 106 -421 236 -228 130 -441 251 -474 269 -33 19 -238 135
-455 259 l-395 226 1158 0 c636 0 1157 -3 1157 -6z m1707 -1139 l0 -1145 -56
32 c-31 17 -83 47 -116 66 -64 37 -86 49 -210 120 -44 25 -258 146 -475 270
-217 124 -408 233 -425 242 -16 9 -127 72 -245 140 -118 68 -231 132 -251 143
l-36 19 204 352 c113 193 277 476 366 629 l161 277 541 0 542 0 0 -1145z
m1205 1048 c62 -109 224 -390 373 -648 252 -436 304 -530 297 -536 -6 -7 -572
-336 -652 -380 -19 -11 -51 -29 -70 -40 -19 -12 -213 -124 -430 -249 -217
-125 -411 -237 -430 -248 -38 -23 -201 -115 -211 -120 -6 -3 -9 2299 -2 2311
2 4 244 7 536 7 l533 0 56 -97z m2887 93 c-3 -3 -1100 -637 -1204 -696 -16 -9
-144 -83 -284 -164 -139 -81 -255 -145 -256 -144 -6 7 -323 556 -360 623 -12
22 -64 111 -114 198 -50 86 -94 164 -97 172 -5 13 130 15 1157 15 639 0 1160
-2 1158 -4z m-7939 -185 c80 -45 152 -87 160 -92 13 -8 268 -153 400 -227 25
-14 153 -87 285 -162 132 -75 267 -152 300 -170 33 -18 65 -36 70 -40 6 -4 35
-21 65 -38 126 -68 245 -141 243 -150 -2 -7 -186 -331 -212 -372 -32 -49 -101
-174 -101 -181 0 -5 -4 -9 -9 -9 -5 0 -11 -6 -13 -13 -7 -29 -243 -426 -249
-419 -6 6 -113 190 -179 306 -9 17 -120 209 -245 426 -126 217 -302 523 -393
680 -90 157 -177 306 -193 333 -16 26 -29 50 -29 52 0 3 -10 22 -23 43 -13 20
-39 64 -57 97 l-34 59 35 -20 c18 -11 99 -57 179 -103z m7969 97 c-11 -21
-239 -417 -422 -733 -38 -66 -129 -223 -202 -350 -73 -126 -171 -296 -217
-377 -47 -80 -88 -152 -92 -160 -4 -7 -12 -22 -19 -33 -7 -11 -55 -93 -107
-183 l-94 -162 -15 27 c-8 15 -40 72 -73 126 -32 53 -58 99 -58 101 0 3 -27
51 -61 108 -34 57 -74 126 -89 153 -15 28 -85 148 -154 268 -69 120 -126 222
-126 226 0 4 113 72 251 152 139 79 271 155 295 169 23 14 98 57 166 96 346
198 938 540 978 565 54 35 54 35 39 7z m-7913 -598 c180 -311 335 -581 346
-600 63 -110 297 -516 334 -578 24 -40 44 -74 44 -77 0 -2 27 -49 59 -104 l60
-100 -101 -173 c-92 -158 -225 -389 -268 -463 -10 -16 -50 -86 -89 -154 -40
-68 -82 -141 -94 -162 -143 -249 -622 -1067 -624 -1065 -7 7 -8 4046 -1 4044
4 -2 154 -257 334 -568z m7999 -1484 c0 -1642 -3 -2052 -12 -2044 -7 6 -13 14
-13 19 0 5 -18 39 -40 76 -22 38 -45 75 -49 83 -5 8 -65 111 -133 229 -145
252 -134 232 -306 531 -74 129 -143 249 -152 265 -10 17 -85 147 -167 290 -83
143 -164 284 -182 313 -17 29 -31 54 -31 56 0 2 -25 46 -55 97 l-55 92 19 31
c10 17 71 121 134 231 63 110 144 250 179 311 36 61 68 117 71 125 4 8 17 30
28 49 27 45 289 497 549 948 112 193 206 352 209 352 3 0 6 -924 6 -2054z
m-6029 835 c7 -7 248 -145 434 -249 25 -13 50 -28 55 -32 6 -4 37 -22 70 -40
33 -18 168 -95 300 -170 132 -75 260 -148 285 -162 136 -76 597 -339 610 -348
8 -6 23 -13 33 -16 9 -4 17 -10 17 -14 0 -4 -57 -40 -127 -80 -188 -108 -564
-325 -604 -349 -19 -11 -59 -34 -89 -51 -30 -17 -62 -35 -70 -40 -14 -9 -457
-265 -545 -315 -22 -13 -80 -47 -130 -75 -49 -29 -117 -68 -150 -86 -33 -19
-67 -38 -75 -43 -8 -6 -65 -39 -127 -74 -128 -73 -117 -75 -173 28 -37 67
-152 267 -245 425 -34 58 -65 112 -68 120 -4 8 -45 80 -92 160 l-84 145 21 35
c34 57 379 652 400 690 19 32 141 243 184 317 11 17 45 77 77 132 55 96 71
112 93 92z m3879 -238 c72 -124 142 -246 156 -272 14 -25 110 -192 214 -371
103 -179 198 -343 210 -365 l23 -40 -26 -45 c-28 -50 -108 -186 -122 -210 -5
-8 -37 -64 -72 -125 -34 -60 -68 -119 -75 -130 -7 -11 -16 -27 -20 -35 -4 -8
-40 -71 -80 -139 -40 -67 -73 -125 -73 -126 0 -2 -9 -20 -21 -39 l-21 -36 -31
17 c-32 16 -642 362 -1227 696 -173 99 -335 191 -360 205 -25 14 -74 42 -110
62 -36 20 -87 50 -115 65 -85 46 -155 89 -155 95 0 3 98 61 218 129 184 106
500 287 727 419 33 19 76 43 95 54 126 72 633 366 670 389 25 15 50 28 55 28
6 0 69 -101 140 -226z m-1761 -970 c60 -35 110 -63 112 -63 2 0 27 -14 56 -31
29 -18 71 -42 93 -54 129 -73 1409 -801 1483 -843 34 -20 62 -40 62 -45 0 -5
-67 -124 -149 -265 -188 -325 -257 -446 -289 -501 -13 -25 -48 -84 -76 -131
l-51 -87 -730 1 -730 1 -1 1072 -2 1072 57 -32 c31 -17 105 -59 165 -94z
m-297 -967 l0 -1053 -729 0 -729 0 -18 26 c-23 33 -518 891 -526 912 -4 11 71
59 317 201 178 102 406 234 508 293 102 59 201 116 220 127 19 11 49 27 65 37
17 10 165 96 330 191 165 95 356 206 425 246 69 40 128 73 131 73 3 1 6 -473
6 -1053z m-2544 664 c40 -69 77 -132 82 -141 6 -9 20 -35 33 -58 12 -23 86
-151 164 -284 77 -133 142 -245 144 -249 3 -4 -17 -19 -43 -34 -27 -15 -100
-57 -163 -94 -122 -71 -430 -249 -1004 -579 -192 -111 -351 -201 -353 -201 -6
0 7 23 192 340 390 671 649 1117 659 1135 6 11 51 89 100 174 82 141 91 152
103 135 8 -11 46 -75 86 -144z m5328 13 c41 -71 79 -137 85 -148 12 -22 175
-304 263 -455 30 -52 64 -111 74 -130 11 -19 27 -48 37 -65 10 -16 27 -46 38
-65 11 -19 70 -123 132 -230 267 -462 263 -453 227 -432 -18 11 -48 29 -67 40
-91 50 -707 401 -797 453 -56 33 -128 74 -161 92 -284 157 -392 223 -389 237
6 23 473 830 480 830 3 0 37 -57 78 -127z m-493 -844 c59 -34 123 -71 142 -82
61 -34 328 -186 520 -295 102 -58 248 -141 325 -185 77 -44 158 -90 180 -103
254 -143 289 -165 305 -192 l18 -29 -1074 0 c-591 0 -1074 2 -1074 4 0 2 51
91 113 198 61 107 117 203 122 213 61 109 308 532 311 532 2 0 52 -28 112 -61z
m-4303 -90 c36 -61 65 -112 65 -114 0 -2 32 -56 70 -120 39 -64 70 -118 70
-120 0 -2 53 -95 118 -207 65 -112 121 -210 124 -219 6 -15 -85 -16 -1043 -16
-1164 0 -1065 -6 -949 59 115 66 532 306 695 401 66 38 143 82 170 98 28 15
174 100 325 188 151 88 278 160 282 160 4 1 37 -49 73 -110z m773 -1341 c5 -7
20 -31 32 -53 12 -22 107 -186 210 -365 163 -282 489 -847 540 -935 9 -16 43
-75 75 -130 32 -55 66 -113 75 -130 40 -71 204 -353 222 -383 l20 -33 -38 22
c-22 12 -84 47 -139 79 -55 32 -116 67 -135 77 -19 11 -188 108 -375 215 -187
107 -529 303 -760 435 -231 133 -436 250 -455 261 -19 11 -82 47 -140 80 -58
32 -121 68 -140 79 -186 108 -364 210 -405 233 -27 15 -148 85 -268 154 -120
69 -221 126 -224 126 -3 0 -17 8 -31 18 -15 11 -52 33 -82 49 -110 61 -345
196 -354 205 -6 4 524 8 1176 8 936 0 1188 -3 1196 -12z m1239 -983 c0 -547
-1 -995 -3 -995 -1 0 -18 26 -37 57 -77 132 -86 146 -596 1033 -272 471 -383
664 -452 783 l-68 117 578 0 578 0 0 -995z m1188 919 c-25 -42 -45 -77 -45
-79 0 -2 -17 -32 -38 -66 -22 -35 -54 -91 -73 -124 -38 -68 -155 -272 -169
-295 -31 -50 -331 -570 -388 -670 -23 -42 -210 -366 -311 -540 -40 -69 -76
-129 -81 -133 -4 -5 -8 439 -8 987 l0 996 579 0 579 0 -45 -76z m2504 72 c-2
-2 -283 -163 -624 -359 -341 -195 -692 -396 -780 -447 -88 -51 -191 -110 -230
-132 -38 -21 -77 -43 -85 -48 -8 -6 -100 -59 -205 -118 -104 -60 -424 -243
-710 -407 -286 -164 -533 -306 -550 -315 -16 -10 -102 -59 -189 -109 -88 -50
-161 -89 -163 -87 -4 4 16 41 54 101 7 11 24 41 38 67 14 26 50 88 80 138 30
50 55 92 55 94 0 2 37 66 81 142 45 77 93 159 107 184 14 25 132 230 262 455
130 226 290 502 355 615 65 113 122 211 128 218 7 9 258 12 1195 12 652 0
1183 -2 1181 -4z"/>
</g>
</svg>
