<?xml version="1.0" encoding="UTF-8" standalone="no"?>
<svg width="106px" height="103px" viewBox="0 0 106 103" version="1.1" xmlns="http://www.w3.org/2000/svg" xmlns:xlink="http://www.w3.org/1999/xlink">
    <!-- Generator: Sketch 50.2 (55047) - http://www.bohemiancoding.com/sketch -->
    <title>Simbolo branco</title>
    <desc>Created with Sketch.</desc>
    <defs></defs>
    <g id="Welcome" stroke="none" stroke-width="1" fill="none" fill-rule="evenodd">
        <g id="Desktop-HD" transform="translate(-81.000000, -37.000000)" fill="#FFFFFF">
            <g id="Simbolo-branco" transform="translate(81.000000, 37.000000)">
                <g id="logo-branco">
                    <path d="M100.22004,84.8776835 L97.7558394,84.8776835 L97.7558394,83.9150273 C97.3747665,84.6391213 96.6317808,85.0016937 95.5279468,85.0016937 C94.9424996,85.0016937 94.4368862,84.900804 94.010042,84.6990246 C93.5831978,84.4972451 93.2606696,84.2250531 93.0424575,83.8813974 C92.8242453,83.5387928 92.7156715,83.1467941 92.7156715,82.7075035 C92.7156715,82.0002245 92.989235,81.4526875 93.536362,81.0627908 C94.0845534,80.673945 94.9286618,80.4784711 96.070816,80.4784711 L97.574883,80.4784711 C97.5280472,79.6902702 96.9947581,79.2961697 95.9728867,79.2961697 C95.6109739,79.2961697 95.2448033,79.3539711 94.8733104,79.4695739 C94.5018176,79.5830749 94.1867406,79.740715 93.9259505,79.9424945 L93.0350063,78.1695678 C93.4533349,77.8942229 93.9610773,77.6808832 94.5603623,77.5305995 C95.1585829,77.379265 95.7599968,77.3035977 96.3624751,77.3035977 C97.6163965,77.3035977 98.5722721,77.5862991 99.2311663,78.1485491 C99.8900605,78.7118501 100.22004,79.5767692 100.22004,80.7401539 L100.22004,84.8776835 Z M91.5181659,83.5303853 C91.1935089,83.9980512 90.705991,84.3732348 90.0566769,84.6506816 C89.4062983,84.9302302 88.6175413,85.0710554 87.6893414,85.0710554 C86.89952,85.0710554 86.1341809,84.9743694 85.3911952,84.7820484 C84.649274,84.5907783 84.0457312,84.3322484 83.5816312,84.0117133 L84.4864132,82.0054791 C84.9228375,82.2892315 85.4284509,82.5183352 86.004318,82.6917394 C86.5801852,82.8661946 87.1454078,82.9534222 87.7031793,82.9534222 C88.761242,82.9534222 89.2902733,82.6917394 89.2902733,82.1694249 C89.2902733,81.895131 89.1391215,81.6912497 88.8378823,81.557781 C88.5355787,81.4253632 88.0512542,81.2855889 87.38278,81.1384581 C86.6493744,80.9829198 86.0362515,80.8158212 85.5444759,80.6371623 C85.0527003,80.4585034 84.6301139,80.1715982 84.2777811,79.7774978 C83.9243839,79.3833973 83.7487498,78.8537262 83.7487498,78.1832299 C83.7487498,77.5968084 83.9105461,77.0671374 84.2362676,76.5952677 C84.5609247,76.1233981 85.0463136,75.7492654 85.6913699,75.4749714 C86.3364263,75.2006775 87.1273122,75.0630051 88.0650921,75.0630051 C88.7058906,75.0630051 89.3360447,75.1344686 89.9587476,75.2752939 C90.580386,75.418221 91.127513,75.626306 91.601193,75.9006 L90.7517624,77.9215472 C89.8235625,77.427608 88.9230383,77.1795874 88.0512542,77.1795874 C87.5030628,77.1795874 87.1038943,77.2594584 86.8537487,77.4202514 C86.6036031,77.5810444 86.477998,77.7891295 86.477998,78.0455575 C86.477998,78.3019856 86.6259565,78.4943066 86.9229379,78.6225206 C87.2199193,78.7507346 87.697857,78.8842033 88.3567512,79.0218758 C89.0997369,79.1774141 89.7149887,79.3445127 90.2025065,79.5231716 C90.6889599,79.7018305 91.1115463,79.9866337 91.4692013,80.3754796 C91.8268563,80.7653763 92.0056838,81.2950473 92.0056838,81.9644927 C92.0056838,82.5404049 91.842823,83.0627194 91.5181659,83.5303853 Z M80.2360668,72.2486022 L73.3799482,68.3969268 L90.9710389,38.3149743 L90.9710389,66.192066 C91.1817999,66.1794547 91.3936254,66.1699963 91.6054508,66.1605379 C86.8771666,66.2582748 82.7204917,68.6417945 80.2360668,72.2486022 Z M79.305738,86.2974961 L54.6605411,100.408395 L72.6774116,69.5970941 L79.5037256,73.4309036 C79.50479,73.4288017 79.5058545,73.4266999 79.5069189,73.4266999 C78.4201161,75.3993041 77.801671,77.6619664 77.801671,80.0665048 C77.801671,82.3091992 78.3519913,84.419476 79.305738,86.2974961 Z M53.4417465,58.7913844 L71.4575526,68.9129357 L53.4417465,99.7200331 L53.4417465,58.7913844 Z M51.0201241,18.7329096 L51.0201241,11.2807322 L53.5396758,11.2807322 L53.5396758,12.0920537 C53.8366572,11.7893845 54.1900544,11.5581789 54.598803,11.3984369 C55.0064871,11.2376439 55.4524914,11.1577728 55.934687,11.1577728 C56.8724669,11.1577728 57.6260971,11.4320668 58.1977064,11.9817056 C58.7682513,12.5323953 59.0535237,13.3615827 59.0535237,14.4703187 L59.0535237,18.7329096 L56.408367,18.7329096 L56.408367,14.8969982 C56.408367,13.8786426 55.9953606,13.3699902 55.1693479,13.3699902 C54.714828,13.3699902 54.3497218,13.5171211 54.0761583,13.8103318 C53.8025948,14.1035426 53.6652809,14.5438842 53.6652809,15.1303057 L53.6652809,18.7329096 L51.0201241,18.7329096 Z M52.0377377,35.0350073 L16.4255187,35.0350073 L40.7268984,21.1836891 C43.092105,24.9859705 47.2455866,27.5838809 52.0377377,27.8182393 L52.0377377,35.0350073 Z M52.0377377,56.4078647 L16.459581,36.422241 L52.0377377,36.422241 L52.0377377,56.4078647 Z M52.0377377,99.7200331 L34.226306,69.2639478 L52.0377377,59.1129704 L52.0377377,99.7200331 Z M26.5622703,86.5675863 L26.5622703,86.5686373 C27.6033018,84.6265101 28.198329,82.4163946 28.198329,80.0665048 C28.198329,77.7418374 27.6139463,75.5548425 26.5942038,73.6295302 L33.0107047,69.9554628 L50.8210721,100.411548 L26.5622703,86.5675863 Z M15.7070153,37.5940331 L51.6045068,57.7593666 L33.5248338,68.0616786 L15.7070153,37.5940331 Z M14.5084453,66.1668435 L14.5084453,38.3149743 L32.3092326,68.7552955 L25.8831516,72.4335666 C25.884216,72.4346176 25.884216,72.4346176 25.884216,72.4356685 C23.434918,68.7552955 19.268663,66.3013632 14.5084453,66.1668435 Z M23.6020365,81.750102 L18.1169288,81.750102 C18.2276315,82.136846 18.4437147,82.4311077 18.764114,82.6370908 C19.0834488,82.843074 19.4858107,82.9460656 19.9680063,82.9460656 C20.3299191,82.9460656 20.6439316,82.8956208 20.9079151,82.7968329 C21.172963,82.6938413 21.4390753,82.5309465 21.708381,82.2997408 L23.1006808,83.7300629 C22.3672752,84.5361297 21.2953747,84.9407395 19.8849792,84.9407395 C19.0025507,84.9407395 18.2276315,84.7746919 17.5591573,84.4446984 C16.8906831,84.1147049 16.3733606,83.6564974 16.0071901,83.0700759 C15.639955,82.4836544 15.4568697,81.8194637 15.4568697,81.0764529 C15.4568697,80.3450024 15.6356972,79.6871174 15.9933522,79.1038487 C16.3499428,78.5226818 16.8449117,78.0676271 17.4761302,77.7365827 C18.1073487,77.4076402 18.8173365,77.2415925 19.6060935,77.2415925 C20.3586592,77.2415925 21.0399068,77.395029 21.6530297,77.7019019 C22.2661525,78.0087748 22.750477,78.4533201 23.108132,79.0355379 C23.465787,79.6177557 23.6446145,80.3071688 23.6446145,81.1048282 C23.6446145,81.1226941 23.6297122,81.3381357 23.6020365,81.750102 Z M13.9261915,82.5477614 C13.4706071,83.2718554 12.8298086,83.8309526 12.0037959,84.2250531 C11.1777831,84.6191535 10.2304232,84.8156783 9.16384487,84.8156783 L4.55477898,84.8156783 L4.55477898,75.193321 L9.16384487,75.193321 C10.2304232,75.193321 11.1777831,75.3908967 12.0037959,75.7839462 C12.8298086,76.1780467 13.4706071,76.7371439 13.9261915,77.4612379 C14.3796469,78.1853318 14.6074391,79.033436 14.6074391,80.0044996 C14.6074391,80.9766142 14.3796469,81.8236675 13.9261915,82.5477614 Z M46.4248961,18.7318586 L49.18182,18.7318586 L49.18182,9.10950127 L46.4248961,9.10950127 L46.4248961,18.7318586 Z M64.7515214,21.1836891 L89.0529011,35.0350073 L53.4417465,35.0350073 L53.4417465,27.8182393 C58.2338977,27.5838809 62.3873792,24.9859705 64.7515214,21.1836891 Z M53.4417465,56.7126357 L53.4417465,36.422241 L89.0518367,36.422241 L53.4417465,56.7126357 Z M89.7554377,37.6213574 L72.1590247,67.7117174 L54.4284911,57.7509591 L89.7554377,37.6213574 Z M91.9013677,66.1458248 C92.0610351,66.1458248 92.2164447,66.1647417 92.3750477,66.1699963 L92.3750477,35.7275733 C92.3750477,35.6781793 92.368661,35.6235307 92.3569521,35.5720349 C92.3548232,35.5636275 92.3526943,35.55522 92.3505654,35.5478634 C92.3335342,35.4837564 92.304794,35.4207004 92.2600872,35.3513387 L92.2089936,35.2840789 C92.1845113,35.2557036 92.1600289,35.2304812 92.0908397,35.1747817 C92.0738085,35.1600686 92.0429395,35.1379989 92.0237794,35.1274896 L65.4253178,19.9656559 C66.3215842,18.1349278 66.8389066,16.089809 66.8389066,13.9206799 C66.8389066,6.23309322 60.5267217,0 52.7402743,0 C44.9527625,0 38.6405776,6.23309322 38.6405776,13.9206799 C38.6405776,16.089809 39.1579,18.1349278 40.0541664,19.9656559 L13.463156,35.1232859 C13.441867,35.1348461 13.3726778,35.185291 13.3545822,35.2000041 C13.3237131,35.2262774 13.2960374,35.2536017 13.2683618,35.2861807 C13.2555884,35.2998429 13.2236549,35.3418803 13.2140748,35.3576443 C13.1736258,35.4207004 13.1448856,35.4848074 13.1278544,35.5510162 C13.12679,35.5531181 13.1257255,35.5573219 13.1257255,35.5636275 L13.1246611,35.5636275 C13.1108232,35.6203779 13.1044365,35.6750265 13.1044365,35.7275733 L13.1044365,66.1973206 C5.78421803,66.7017692 0,72.7099625 0,80.0665048 C0,87.7540915 6.31218493,93.9861338 14.0996967,93.9861338 C19.0036151,93.9861338 23.3199574,91.5111828 25.8458958,87.7603971 L52.3921994,102.90962 C52.4113595,102.920129 52.4933221,102.953759 52.5146111,102.961115 C52.5923159,102.987389 52.6668273,103 52.7402743,103 C52.7690145,103 52.7988191,102.996847 52.8243658,102.992643 C52.8467193,102.990542 52.8988773,102.984236 52.9191018,102.976879 C52.9212307,102.976879 52.9233596,102.975829 52.926553,102.974778 C52.9520998,102.967421 52.9755177,102.959014 52.9882911,102.952708 C53.00958,102.9443 53.0723826,102.918027 53.0915426,102.907518 L79.9965656,87.5029181 C82.4958928,91.39558 86.8867466,93.9861338 91.9013677,93.9861338 C99.6878151,93.9861338 106,87.7540915 106,80.0665048 C106,72.3778671 99.6878151,66.1458248 91.9013677,66.1458248 Z" id="Fill-39"></path>
                    <path d="M94.5060241,83.2901235 C94.5060241,83.4826303 94.6042632,83.6371656 94.8007414,83.7510802 C94.996036,83.866761 95.2647141,83.9259259 95.605592,83.9259259 C95.9452862,83.9259259 96.244738,83.8632287 96.5027636,83.7404835 C96.7607892,83.6177383 96.946615,83.4367112 97.060241,83.1982853 L97.060241,82.654321 L95.7902342,82.654321 C94.9344886,82.654321 94.5060241,82.8671382 94.5060241,83.2901235" id="Fill-40"></path>
                    <path d="M19.1566265,78.8395062 C18.8188788,78.8395062 18.5365429,78.952352 18.3113777,79.1801333 C18.0844535,79.4089595 17.9410867,79.7192854 17.8795181,80.1111111 L20.4337349,80.1111111 C20.3721664,79.7192854 20.2287995,79.4089595 20.0018753,79.1801333 C19.7758306,78.952352 19.4934946,78.8395062 19.1566265,78.8395062" id="Fill-41"></path>
                    <path d="M7.86364903,77.5679012 L6.38554217,77.5679012 L6.38554217,82.654321 L7.86364903,82.654321 C8.57332113,82.654321 9.14286689,82.4285054 9.57319035,81.9788995 C10.0026098,81.528281 10.2168675,80.9055161 10.2168675,80.1106048 C10.2168675,79.3177187 10.0026098,78.6939412 9.57319035,78.2433227 C9.14286689,77.7937168 8.57332113,77.5679012 7.86364903,77.5679012" id="Fill-42"></path>
                    <path d="M21.4982348,68.6666667 L45.9759036,26.7771649 C45.1580819,26.401676 44.3845808,25.9508801 43.6617319,25.4320988 L19.1566265,67.3665755 C19.981835,67.7284673 20.7658887,68.1635743 21.4982348,68.6666667" id="Fill-43"></path>
                    <path d="M76.626506,81.382716 C76.5818515,80.94951 76.5579665,80.510301 76.5579665,80.0670902 C76.5579665,79.6528931 76.58289,79.2436985 76.6223521,78.8395062 L28.1005395,78.8395062 C28.1400016,79.2436985 28.164925,79.6528931 28.164925,80.0670902 C28.164925,80.510301 28.1410401,80.94951 28.0963855,81.382716 L76.626506,81.382716 Z" id="Fill-44"></path>
                    <path d="M85.5662651,68.5409724 L61.046084,25.4320988 C60.3288672,25.9687814 59.5600444,26.4338351 58.746988,26.8251217 L83.2692753,69.9382716 C83.9864922,69.4005199 84.7542618,68.9322589 85.5662651,68.5409724" id="Fill-45"></path>
                </g>
            </g>
        </g>
    </g>
</svg>